<svg xmlns="http://www.w3.org/2000/svg" viewBox="0 0 494 28" width="494" height="28"><path d="M1 2v24L25 2v24M27.173 2.047L27 25.892 51 2.065l-.173 23.848M53.787 2.213L53 25.508 77 2.295l-.787 23.311M81.043 2.553L79 24.723l24-21.957-2.043 22.213M109.204 3.139L105 23.372l24-19.795-4.204 20.321M138.371 3.996L131 21.393l24-16.629-7.371 17.55M167.974 4.972L157 19.141l24-13.026-10.974 14.398M197.169 5.838L183 17.144l24-9.83-14.169 11.601M225.686 6.519L209 15.571l24-7.314-16.686 9.4M253.613 7.041L235 14.367l24-5.387-18.613 7.713M281.091 7.441L261 13.443l24-3.909-20.091 6.42M308.227 7.749L287 12.733l24-2.773-21.227 5.426M335.099 7.985L313 12.188l24-1.901-22.099 4.664M361.76 8.164L339 11.775l24-1.24-22.76 4.085M388.251 8.297L365 11.468l24-.749-23.251 3.656M414.601 8.392L391 11.25l24-.4-23.601 3.35M440.831 8.454L417 11.106l24-.169-23.831 3.147M466.96 8.489L443 11.025l24-.04-23.96 3.035M493 8.5L469 11h24l-24 3" fill="none" stroke="#000000"/></svg>