<svg xmlns="http://www.w3.org/2000/svg" viewBox="0 0 260 28" width="260" height="28"><path d="M1 2v24L25 2v24M27.787 2.213L27 25.508 51 2.295l-.787 23.311M57.204 3.139L53 23.372 77 3.577l-4.204 20.321M89.974 4.972L79 19.141l24-13.026-10.974 14.398M121.686 6.519L105 15.571l24-7.314-16.686 9.4M151.091 7.441L131 13.443l24-3.909-20.091 6.42M179.099 7.985L157 12.188l24-1.901-22.099 4.664M206.251 8.297L183 11.468l24-.749-23.251 3.656M232.831 8.454L209 11.106l24-.169-23.831 3.147M259 8.5L235 11h24l-24 3" fill="none" stroke="#000000"/></svg>