<svg xmlns="http://www.w3.org/2000/svg" viewBox="0 0 494 28" width="494" height="28"><path d="M25 8.5L1 11h24L1 14M50.827 8.453L27 11.108l24-.173-23.827 3.152M76.213 8.287L53 11.492l24-.787-23.213 3.689M100.957 7.947L79 12.277l24-2.043-21.957 4.787M124.796 7.361L105 13.628l24-4.205-19.796 6.679M147.629 6.504L131 15.607l24-7.371-16.629 9.45M170.026 5.528L157 17.859l24-10.974-13.026 12.602M192.831 4.662L183 19.856l24-14.17-9.831 15.399M216.314 3.981L209 21.429l24-16.686-7.314 17.6M240.387 3.459L235 22.633 259 4.02l-5.387 19.287M264.909 3.059L261 23.557l24-20.091-3.909 20.58M289.773 2.751L287 24.267 311 3.04l-2.773 21.574M314.901 2.515L313 24.812l24-22.099-1.901 22.336M340.24 2.336L339 25.225l24-22.76-1.24 22.915M365.749 2.203L365 25.532l24-23.251-.749 23.344M391.399 2.108L391 25.75l24-23.6-.399 23.65M417.169 2.046L417 25.894l24-23.831-.169 23.853M443.04 2.011L443 25.975l24-23.96-.04 23.965M469 2v24l24-24v24" fill="none" stroke="#000000"/></svg>