<svg xmlns="http://www.w3.org/2000/svg" viewBox="0 0 260 28" width="260" height="28"><path d="M25 8.5L1 11h24L1 14M50.213 8.287L27 11.492l24-.787-23.213 3.689M72.796 7.361L53 13.628l24-4.205-19.796 6.679M92.026 5.528L79 17.859l24-10.974-13.026 12.602M112.314 3.981L105 21.429l24-16.686-7.314 17.6M134.909 3.059L131 23.557l24-20.091-3.909 20.58M158.901 2.515L157 24.812l24-22.099-1.901 22.336M183.749 2.203L183 25.532l24-23.251-.749 23.344M209.169 2.046L209 25.894l24-23.831-.169 23.853M235 2v24l24-24v24" fill="none" stroke="#000000"/></svg>